# xmcd
#
# Track frame offsets:
# 150
# 16490
# 36145
# 52705
# 77728
# 91310
# 109174
# 129532
# 143265
# 157201
#
# Disc length: 2549 seconds
#
#
# Revision: 5
# Processed by: cddbd v1.5PL3 Copyright (c) Steve Scherf et al.
# Submitted via: FreeRIP 2.60 
#
DISCID=7509f30a
DTITLE=Joss Stone - The Soul Sessions
DYEAR=2003
DGENRE=Soul
TTITLE0=The Chokin' Kind
TTITLE1=Super Duper Love (Are You Diggin' On Me?)
TTITLE2=Fell In Love With A Boy
TTITLE3=Victim Of A Foolish Heart
TTITLE4=Dirty Man
TTITLE5=Some Kind Of Wonderful
TTITLE6=I've Fallen In Love With You
TTITLE7=I Had A Dream
TTITLE8=All The King's Horses
TTITLE9=For The Love Of You (Pts. 1 and 2)
EXTD=YEAR: 2003
EXTT0=
EXTT1=(Are you diggin' on me?) Pt.1
EXTT2=
EXTT3=
EXTT4=
EXTT5=
EXTT6=
EXTT7=
EXTT8=
EXTT9=
PLAYORDER=
